<?xml version="1.0" encoding="UTF-8"?><svg id="Layer_1" xmlns="http://www.w3.org/2000/svg" viewBox="0 0 1024 1024"><defs><style>.cls-1{fill:none;}.cls-2{fill:#fff;}</style></defs><path class="cls-2" d="m974.67,601.1s0,0,0,0c.03-.17.06-.31.09-.47,0-.02,0-.03,0-.05.01-.06.02-.12.03-.18,0-.02,0-.04.01-.07.01-.08.03-.14.04-.21,0-.02,0-.04.01-.05.01-.06.02-.1.03-.16,0-.04.01-.07.02-.11,0-.03.01-.07.02-.11,0-.04.01-.08.02-.12,0-.03.01-.05.02-.08.01-.08.03-.16.04-.23,0-.02,0-.05.01-.07,0-.05.02-.1.03-.14,0-.02,0-.04,0-.05.03-.17.06-.34.09-.5h0c.4-2.17.79-4.34,1.16-6.52l24.66,4.2c-.95,5.54-1.99,11.07-3.13,16.56l-24.48-5.03c.45-2.2.89-4.4,1.31-6.61Z"/><path class="cls-2" d="m956.89,667.44l23.54,8.21c-1.85,5.31-3.79,10.58-5.81,15.82l-23.25-9.01c1.92-4.97,3.77-9.97,5.52-15.02Z"/><path class="cls-2" d="m964.42,643.87s0,0,0-.01c.02-.07.04-.13.06-.2,0-.02.01-.04.02-.05.02-.07.04-.14.06-.21,0-.02,0-.03.01-.05.02-.06.03-.1.05-.16,0-.03.02-.07.03-.1,0-.03.02-.07.03-.1.04-.15.08-.29.13-.44v-.03c.79-2.72,1.55-5.45,2.28-8.2v-.02c.02-.05.03-.1.05-.15,0-.01,0-.03.01-.05.02-.07.04-.15.06-.22,0-.03.02-.07.03-.1,0-.03.02-.06.03-.1.01-.04.02-.09.04-.13,0-.03.01-.05.02-.08.3-1.11.59-2.24.88-3.36l24.17,6.22c-1.41,5.44-2.9,10.86-4.49,16.24l-23.93-7.04c.16-.55.33-1.12.49-1.67Z"/><path class="cls-2" d="m979.8,567.64h0c.02-.19.04-.36.06-.54v-.03c0-.05.02-.11.02-.16,0-.02,0-.03,0-.05.02-.16.04-.31.05-.47,0-.03,0-.05,0-.08,0-.04.01-.09.02-.13,0-.03,0-.05,0-.08.02-.15.03-.29.05-.44,0-.03,0-.06.01-.09,0-.04,0-.08.01-.12,0-.03,0-.06.01-.1,0-.05.01-.11.02-.16,0-.05.01-.11.02-.15,0-.04,0-.08.01-.11,0-.03,0-.07.01-.1,0-.04,0-.08.01-.12,0-.05,0-.07.01-.12,0-.03,0-.07.01-.1,0-.06.02-.14.02-.2,0-.03,0-.06.01-.09,0-.05,0-.09.01-.13,0-.03,0-.06,0-.09,0-.06.01-.1.02-.16,0-.02,0-.04,0-.06,0-.08.02-.14.02-.22,0-.02,0-.04,0-.07,0-.05.01-.11.02-.15,0-.03,0-.06,0-.09,0-.06.01-.11.02-.17,0-.02,0-.04,0-.05,0-.08.01-.14.02-.22,0-.02,0-.04,0-.07,0-.06.01-.1.02-.16,0-.02,0-.05,0-.07,0-.06.01-.13.02-.19,0-.01,0-.02,0-.03,0-.08.02-.15.02-.23,0-.02,0-.03,0-.05,0-.06.01-.12.02-.18,0-.02,0-.04,0-.06,0-.08.02-.15.02-.22h0c0-.08.02-.15.02-.23,0-.02,0-.04,0-.06,0-.06.01-.11.02-.17,0-.02,0-.04,0-.06.02-.15.03-.31.05-.46,0-.02,0-.03,0-.05,0-.06.01-.12.02-.18,0-.02,0-.04,0-.06,0-.08.01-.15.02-.22,0,0,0-.01,0-.02,0-.08.01-.13.02-.21,0-.02,0-.05,0-.07,0-.06.01-.1.02-.16,0-.02,0-.05,0-.07,0-.08.01-.12.02-.2,0-.03,0-.05,0-.08,0-.06,0-.1.02-.16,0-.03,0-.06,0-.09,0-.05,0-.09.01-.14,0-.03,0-.06,0-.09,0-.06.01-.12.02-.19,0-.04,0-.07.01-.11,0-.05,0-.08.01-.12,0-.04,0-.08.01-.12,0-.03,0-.06,0-.09,0-.04,0-.08.01-.12,0-.02,0-.06,0-.07,0-.08.02-.17.02-.25,0-.02,0-.06,0-.07,0-.05,0-.1.01-.15,0-.02,0-.03,0-.04.02-.18.03-.35.05-.53h0c.11-1.2.22-2.39.32-3.58l24.96,2.14c-.48,5.6-1.06,11.19-1.74,16.75l-24.86-2.99c.06-.53.13-1.06.19-1.59Z"/><path class="cls-2" d="m461.24,980.24h.02c.24.03.48.05.72.08h.02c.17.02.35.04.52.06.02,0,.02,0,.03,0,.05,0,.1.01.16.02.02,0,.03,0,.05,0,.05,0,.1.01.16.02h.01c.11.01.21.02.32.03.02,0,.04,0,.06,0,.05,0,.09,0,.14.01.03,0,.04,0,.07,0,.04,0,.09,0,.13.01.02,0,.05,0,.06,0,.08,0,.17.02.25.03.03,0,.06,0,.09,0,.04,0,.08,0,.12.01.03,0,.07,0,.1.01.04,0,.07,0,.11.01.06,0,.13.01.2.02.03,0,.07,0,.1.01.05,0,.07,0,.12.01.04,0,.07,0,.11.01.05,0,.08,0,.12.01.03,0,.06,0,.09,0,.06,0,.14.01.21.02.03,0,.06,0,.09,0,.05,0,.09,0,.14.01.03,0,.06,0,.09,0,.05,0,.1.01.15.01.02,0,.05,0,.07,0,.06,0,.15.02.22.02.02,0,.04,0,.06,0,.05,0,.12.01.17.02.02,0,.04,0,.06,0,.06,0,.16.02.22.02,0,0,0,0,0,0,.08,0,.16.02.24.02.01,0,.02,0,.03,0,.08,0,.13.01.21.02.01,0,.02,0,.03,0,.9.09,1.83.17,2.73.25l-2.76,30.76c-5.67-.53-11.31-1.16-16.94-1.89l3.8-30.57c2.43.3,4.86.58,7.3.85Z"/><path class="cls-2" d="m422.8,974.46s.02,0,.03,0c.08.01.16.03.23.04h0c.08.01.14.03.22.04.03,0,.05,0,.08.01.05,0,.09.02.14.03.03,0,.07.01.1.02.03,0,.06.01.09.02.09.02.17.03.26.05.02,0,.02,0,.03,0,.05.01.11.02.16.03h.02c2.34.45,4.68.87,7.02,1.28l-5.27,30.24c-5.61-1-11.18-2.1-16.73-3.29l6.28-29.96c2.43.51,4.88,1,7.33,1.48Z"/><path class="cls-2" d="m507.28,982.97s0,0,0,0c.16,0,.33,0,.49,0,.02,0,.03,0,.05,0,.05,0,.12,0,.17,0,.03,0,.06,0,.09,0,.03,0,.08,0,.12,0,.2,0,.39,0,.59,0l-.24,30.98c-5.7-.05-11.37-.2-17.03-.45l1.27-30.93c4.8.2,9.65.32,14.49.38Z"/><path class="cls-2" d="m921.41,745.39s0-.01.01-.02c.08-.14.15-.27.23-.41,0-.01.01-.03.02-.04.03-.05.07-.12.1-.17,0-.01.01-.03.02-.04.04-.06.07-.13.11-.19,0-.01.01-.03.02-.04.04-.06.05-.09.09-.16.01-.02.02-.04.03-.05.03-.05.07-.12.1-.17.01-.02.02-.04.03-.05.03-.05.05-.1.08-.15.02-.03.04-.06.05-.1.01-.03.04-.06.05-.09.02-.03.04-.06.05-.1.02-.04.05-.09.07-.13.03-.05.05-.1.08-.14.01-.03.02-.04.04-.06.02-.04.05-.08.07-.12,0-.01,0-.01.01-.03.08-.15.17-.3.25-.44h0c.76-1.35,1.51-2.71,2.26-4.07l22.02,12.09c-2.68,4.94-5.44,9.83-8.28,14.68l-21.68-12.88c1.41-2.36,2.78-4.72,4.14-7.11Z"/><path class="cls-2" d="m791.29,891.54s.02-.02.03-.02c.04-.03.08-.06.12-.09.02-.02.04-.03.07-.05.05-.04.1-.07.15-.11.04-.03.07-.06.11-.08.02-.02.05-.04.07-.05.04-.03.08-.06.12-.09.02-.01.04-.03.06-.04.06-.04.12-.09.17-.13.01,0,.02-.02.04-.03.05-.04.11-.08.16-.12.01,0,.02-.02.04-.03.13-.1.25-.18.38-.28,0,0,.01,0,.02-.01,1.61-1.19,3.19-2.38,4.78-3.6,0,0,0,0,.01,0,.13-.1.26-.2.39-.29,0,0,.01-.01.02-.02.06-.04.1-.08.16-.12.01,0,.03-.02.04-.03.06-.04.12-.09.17-.13.01-.01.03-.02.04-.03.05-.04.09-.07.13-.1.02-.02.05-.03.07-.05.04-.03.06-.05.1-.08.06-.04.12-.09.17-.13.01,0,.04-.03.05-.04.04-.03.08-.06.12-.09.02-.02.01-.01.04-.03.03-.02.06-.04.09-.07l16.79,21.82c-4.42,3.51-8.9,6.95-13.43,10.32l-16.2-22.6c1.66-1.19,3.31-2.39,4.95-3.6Z"/><path class="cls-2" d="m759.18,913.22h.02c.14-.1.28-.18.42-.27.01,0,.02-.01.03-.02.04-.03.09-.05.13-.08.01,0,.03-.02.05-.03.07-.04.14-.09.21-.13.03-.02.04-.03.07-.04.04-.02.07-.05.11-.07.03-.02.04-.03.07-.04.04-.02.07-.05.11-.07.03-.02.04-.02.06-.04.06-.04.13-.08.19-.12.03-.02.06-.04.08-.05.03-.02.06-.04.09-.06.04-.02.07-.04.1-.06.04-.02.08-.05.11-.07.05-.03.08-.05.13-.08.02-.02.05-.03.07-.05.04-.02.08-.05.12-.08l.07-.04c.05-.03.12-.07.17-.11.02-.02.05-.03.07-.04.04-.02.08-.05.11-.07.03-.02.05-.03.08-.05.05-.03.07-.05.12-.08.04-.02.07-.05.11-.07.04-.02.08-.05.12-.07.03-.02.06-.04.09-.06.04-.02.07-.04.11-.07.03-.02.05-.03.08-.05.05-.03.12-.07.17-.1.03-.02.06-.04.09-.05.03-.02.07-.04.1-.06.03-.02.06-.04.09-.06.03-.02.07-.04.09-.06.05-.03.11-.07.16-.1.04-.02.04-.03.08-.05.03-.02.07-.04.1-.07.02-.02.05-.03.08-.05.07-.05.15-.09.22-.14.01,0,.02-.01.03-.02.04-.03.09-.06.13-.08l.03-.02c1.16-.73,2.31-1.47,3.46-2.21l15.3,23.7c-4.7,3.14-9.45,6.21-14.26,9.19l-14.63-24.45c1.82-1.09,3.64-2.19,5.45-3.31Z"/><path class="cls-2" d="m723.73,933.03s0,0,0,0c.07-.03.13-.07.2-.1,0,0,.02,0,.03-.01.07-.03.14-.07.2-.1l.04-.02c.05-.03.09-.05.15-.07.03-.01.06-.03.09-.04.04-.02.06-.03.1-.05.08-.04.15-.08.23-.11h.02s.1-.06.15-.09h.02c2.94-1.5,5.86-3.02,8.76-4.57l13.6,25.49c-4.95,2.74-9.95,5.4-15,7.98l-12.84-26.17c1.41-.69,2.85-1.41,4.26-2.11Z"/><path class="cls-2" d="m829.07,860.57l18.09,19.88c-4.11,3.86-8.28,7.65-12.52,11.37l-17.58-20.68c4.06-3.46,8.07-6.98,12.01-10.57Z"/><path class="cls-2" d="m684.94,950.4s.02,0,.03-.01c.07-.03.14-.05.21-.08.01,0,.03-.01.04-.02.06-.02.11-.04.16-.07.03-.01.07-.03.1-.04.03-.01.05-.02.08-.03.15-.06.3-.12.45-.18h.01c4.22-1.68,8.41-3.41,12.56-5.2l11.69,27.11c-5.17,2.32-10.38,4.55-15.65,6.69l-10.84-27.72c.38-.15.77-.3,1.15-.45Z"/><path class="cls-2" d="m380.15,964.13s.09.03.12.04c.02,0,.05.01.07.02,2.87.84,5.73,1.64,8.62,2.43,0,0,.02,0,.03,0,.06.02.13.03.19.05.02,0,.05.01.07.02.06.02.1.03.15.04.05.01.09.02.14.04.03,0,.09.02.12.03.04.01.09.02.13.03.03,0,.04,0,.07.02,1.08.29,2.16.58,3.24.86l-7.72,29.5c-5.5-1.46-10.96-3.02-16.39-4.66l8.7-29.15c.82.24,1.64.49,2.47.73Z"/><path class="cls-2" d="m900.05,779.37v-.02c.07-.09.13-.17.19-.26l.02-.02s.05-.07.08-.11c.02-.02.03-.04.04-.06.02-.03.05-.07.07-.1.03-.04.05-.08.08-.11.03-.04.05-.08.08-.12.03-.04.05-.07.08-.11.02-.02.03-.05.05-.07.04-.06.07-.1.11-.16,0,0,0,0,0-.01.04-.06.09-.13.13-.19,0,0,0-.01.02-.02.04-.06.09-.13.13-.19,0,0,0,0,0,0,1.32-1.92,2.62-3.86,3.91-5.81l21.17,14.02c-3.07,4.71-6.21,9.37-9.43,13.98l-20.8-14.82c1.37-1.92,2.73-3.86,4.07-5.8Z"/><path class="cls-2" d="m937.13,715.38s.01-.02.02-.04c.02-.04.04-.09.06-.13,0-.01.03-.06.03-.07.03-.07.06-.13.1-.2.01-.03.03-.06.04-.08.02-.03.03-.07.05-.1.01-.03.03-.07.05-.1.01-.03.03-.06.04-.09.03-.05.06-.13.09-.18.01-.02.02-.04.03-.06.03-.05.05-.09.07-.15,0-.02.02-.04.03-.06.06-.13.13-.28.2-.41,0-.01.01-.02.02-.03.03-.07.06-.13.09-.2,0,0,0,0,0,0,.07-.15.14-.29.21-.44,0,0,0,0,0-.01,1.46-3.09,2.88-6.19,4.27-9.32l22.82,10.16c-2.27,5.14-4.64,10.24-7.08,15.3l-22.5-10.95c.46-.94.91-1.87,1.36-2.81Z"/><path class="cls-2" d="m845.78,844.61s.03-.03.05-.05c.03-.03.06-.06.08-.09.03-.03.05-.05.08-.08.03-.03.05-.05.08-.08.05-.05.08-.08.13-.13.02-.02.04-.04.06-.06.04-.04.06-.06.1-.1.02-.02.04-.04.06-.06.04-.04.1-.11.15-.15.01-.01.03-.03.04-.04.04-.04.08-.08.12-.12.02-.02.03-.03.05-.05.1-.1.21-.21.31-.31.01-.01.03-.03.04-.04.05-.05.09-.09.14-.14,0,0,.01-.01.02-.02.05-.05.11-.11.16-.16.01-.01.02-.02.03-.03.04-.04.09-.09.13-.14.01-.01.02-.02.03-.03.05-.05.11-.11.16-.16,0,0,.02-.02.03-.03.04-.04.09-.09.13-.14.01-.01.03-.03.04-.04.04-.04.09-.1.14-.14,0,0,.01-.01.02-.02.05-.05.1-.1.15-.16.02-.02.03-.03.05-.05.04-.04.06-.06.1-.11.02-.02.04-.04.06-.06.04-.04.1-.1.14-.14.02-.02.04-.04.06-.06.03-.03.06-.06.09-.09.02-.03.05-.05.07-.08.03-.03.06-.06.09-.09.04-.04.07-.07.11-.11.03-.03.06-.06.09-.09.03-.03.05-.06.08-.08.02-.02.04-.04.06-.06.1-.11.21-.21.31-.32.01-.01.02-.02.03-.03,2.41-2.47,4.78-4.97,7.14-7.49l19.23,17.92c-3.78,4.17-7.63,8.28-11.55,12.33l-18.78-18.72s.05-.05.08-.08Z"/><path class="cls-2" d="m874.8,812.71s0,0,0,0c.05-.06.09-.11.14-.16.01-.01.02-.03.04-.04.05-.06.09-.11.14-.16.01-.02.03-.03.04-.05.04-.05.06-.07.09-.11.02-.03.05-.06.07-.09.02-.02.04-.04.05-.07.1-.12.2-.24.3-.36h0c2.2-2.67,4.37-5.37,6.51-8.08l20.24,15.96c-3.43,4.46-6.94,8.86-10.52,13.2l-19.84-16.76c.91-1.08,1.82-2.17,2.73-3.26Z"/><path class="cls-2" d="m564.41,44.83s0,0,0,0c-.08,0-.15-.02-.23-.03,0,0-.01,0-.02,0-.08,0-.15-.02-.23-.02-.02,0-.04,0-.06,0-.05,0-.1-.01-.15-.02-.03,0-.07,0-.1-.01-.03,0-.06,0-.1-.01-2.57-.28-5.14-.53-7.72-.77h-.01c-.05,0-.11-.01-.16-.02-.03,0-.03,0-.06,0-.05,0-.09,0-.14-.01-.06,0-.11-.01-.18-.02-.03,0-.05,0-.08,0-.06,0-.11-.01-.17-.02-.02,0-.04,0-.06,0-1.16-.1-2.3-.2-3.47-.3l.45-5.45c5.39.48,10.76,1.04,16.1,1.68l-.62,5.35c-1-.12-1.97-.23-2.97-.34Z"/><path class="cls-2" d="m73.56,682.27s0,.02.01.04c.03.07.05.13.08.2.01.03.02.06.04.1.02.04.02.06.04.1.02.04.03.09.05.13v.03c1.29,3.28,2.6,6.55,3.95,9.8h0c.02.06.04.11.06.16,0,.01.01.03.02.04.03.06.05.12.08.19.02.04.03.08.05.12.01.03.03.06.04.1.02.06.03.07.05.13,0,.02.02.05.03.07.48,1.14.96,2.29,1.44,3.43l-34.74,14.81c-2.44-5.23-4.79-10.5-7.05-15.81l35.77-13.82c.03.07.05.14.08.21Z"/><path class="cls-2" d="m631.98,57.3s-.04-.01-.07-.02c-.06-.02-.09-.02-.15-.04-.03,0-.06-.02-.09-.02-.03,0-.09-.02-.12-.03-.08-.02-.15-.04-.23-.06h-.03c-1-.27-1.99-.52-2.99-.78l1.36-5.38c5.26,1.28,10.48,2.65,15.67,4.08l-1.59,5.49c-3.9-1.13-7.84-2.22-11.78-3.25Z"/><path class="cls-2" d="m344.78,952.23s0,0,0,0c.14.05.3.12.44.17.02,0,.03.01.05.02.07.03.11.04.18.07.01,0,.03.01.05.02.06.02.14.05.2.08.03,0,.05.02.08.03.04.02.08.03.12.05.03.01.06.02.1.04.04.02.07.03.11.04.06.02.13.05.19.07.01,0,.05.02.07.03.04.02.09.03.13.05.01,0,.04.02.06.02.15.06.3.11.44.17.01,0,.03.01.04.02.05.02.1.04.15.06h0c.16.06.33.12.49.18h.03c.16.07.31.13.47.19h.02c.05.03.11.05.16.07h0c.11.04.22.08.33.13h0s.1.04.15.06c.01,0,.03.01.04.02.15.05.29.11.44.16.03.01.04.01.07.02.04.02.08.03.13.05.01,0,.06.02.07.03.07.03.14.05.21.08.03.01.06.02.09.03.04.01.07.03.11.04.03.01.07.03.1.04.04.01.07.03.11.04.04.02.1.04.14.05.04.01.08.03.12.04.04.02.09.03.13.05.03,0,.05.02.08.03.04.02.11.04.15.06.02,0,.04.01.06.02.07.03.13.05.2.07.02,0,.04.01.06.02.06.02.11.04.16.06.02,0,.03.01.05.02.07.03.14.05.21.08,0,0,0,0,0,0,.07.03.14.05.21.08.01,0,.03,0,.04.01.07.03.13.05.2.07,0,0,.01,0,.02,0,.08.03.14.05.23.08,0,0,0,0,0,0,.07.03.15.05.22.08,0,0,.01,0,.02,0,1.09.39,2.2.79,3.29,1.18l-10.1,28.6c-5.36-1.91-10.67-3.91-15.95-5.99l11.06-28.2c1.32.52,2.63,1.02,3.95,1.53Z"/><path class="cls-2" d="m748.34,105.29s-.03-.02-.05-.03c-.05-.03-.09-.05-.14-.08-.02-.01-.04-.03-.07-.04-.05-.03-.11-.07-.16-.09-.04-.02-.08-.05-.12-.07-.01,0-.03-.02-.04-.02-2.45-1.42-4.92-2.82-7.4-4.19h0s-.1-.05-.14-.08c-.01,0-.03-.02-.04-.02-.07-.04-.13-.07-.2-.11-.04-.02-.06-.03-.1-.06-.03-.01-.05-.03-.08-.04-.04-.02-.09-.05-.13-.07-.02-.01-.04-.02-.06-.03-.87-.48-1.74-.96-2.62-1.43l3.79-6.97c4.85,2.45,9.66,4.98,14.42,7.57l-4.29,7.28c-.85-.5-1.71-1-2.57-1.5Z"/><path class="cls-2" d="m770.43,118.94l5.07-7.72c4.66,2.83,9.26,5.74,13.82,8.71l-5.67,8.02c-4.35-3.07-8.77-6.08-13.22-9.01Z"/><path class="cls-2" d="m716.2,88.26s-.04-.02-.07-.03c-.04-.02-.08-.04-.12-.06-.03-.01-.05-.03-.08-.04-.06-.03-.11-.05-.17-.08-.03-.01-.08-.04-.1-.05-.03-.02-.07-.03-.1-.05-.03-.01-.07-.04-.1-.05-.03-.01-.06-.03-.09-.04-.05-.03-.12-.06-.18-.08-.03-.01-.05-.02-.08-.04-.04-.02-.08-.04-.12-.06-.03-.01-.06-.03-.08-.04-.04-.02-.09-.04-.13-.06-.03-.02-.06-.03-.1-.05-.05-.03-.1-.05-.16-.07-.02-.01-.05-.02-.07-.04-.04-.02-.09-.04-.13-.06-.02-.01-.05-.02-.07-.03-.05-.03-.14-.06-.19-.09-.02,0-.04-.02-.06-.03-.04-.02-.11-.05-.15-.07l-.07-.03c-.05-.03-.11-.05-.16-.08-.02,0-.03-.02-.05-.02-.07-.03-.11-.05-.18-.08l-.08-.04s-.08-.04-.12-.06c-.03-.01-.06-.03-.08-.04-.05-.03-.12-.06-.17-.08-.03-.02-.07-.03-.1-.05-.03-.01-.07-.03-.09-.04-.03-.02-.07-.03-.1-.05-.04-.02-.07-.03-.11-.05-.05-.03-.11-.05-.16-.08-.03-.01-.07-.03-.09-.04-.04-.02-.08-.04-.11-.05-.03-.01-.05-.02-.07-.03-.04-.02-.08-.04-.12-.06h-.01c-.09-.05-.18-.09-.28-.14-.01,0-.04-.02-.05-.03-.05-.02-.09-.04-.14-.06h-.02c-3.14-1.48-6.3-2.91-9.48-4.31l2.77-6.28c5.02,2.07,9.99,4.22,14.92,6.43l-3.16,6.55c-.11-.05-.21-.1-.32-.15Z"/><path class="cls-2" d="m668.91,68.62s-.08-.03-.1-.04c-.03-.01-.06-.02-.09-.03-.06-.02-.1-.04-.16-.06-.01,0-.03-.01-.04-.02-.07-.02-.15-.05-.22-.08-.01,0-.02,0-.03-.01-.07-.02-.15-.05-.22-.08,0,0,0,0,0,0-.79-.28-1.57-.55-2.36-.82l1.97-5.73c5.15,1.68,10.27,3.42,15.34,5.25l-2.28,5.94c-3.91-1.5-7.85-2.94-11.81-4.34Z"/><path class="cls-2" d="m590.16,48.38l.88-5.27c5.34.88,10.64,1.84,15.92,2.88l-1.06,5.28c-5.21-1.05-10.46-2.01-15.73-2.89Z"/><path class="cls-2" d="m212.02,874.57s0,0,0,0c.06.05.11.09.17.14.01.01.03.02.04.03.06.05.11.1.17.14,0,0,.02.01.02.02.05.04.09.08.14.12.02.02.05.04.07.06.03.03.07.06.1.08.04.03.08.07.12.1.02.02.06.05.09.07.04.03.07.06.11.09.02.02.02.02.05.04,2.27,1.88,4.56,3.73,6.87,5.57l-19.33,24.32c-4.5-3.48-8.95-7.03-13.33-10.64l20.31-23.84c1.46,1.24,2.93,2.48,4.4,3.7Z"/><path class="cls-2" d="m270.93,916.33c.06.04.12.07.18.11.02.01.04.02.05.03.05.03.08.05.13.08.03.02.06.03.08.05.04.02.07.04.1.06.03.02.05.03.08.05.05.03.11.07.16.1.03.02.07.04.1.06.03.02.06.03.08.05.03.02.07.04.11.06.03.02.05.03.08.05.06.04.13.08.19.11.01,0,.05.03.06.04.04.02.08.05.12.07.01,0,.04.02.05.03.08.05.17.1.25.15.01,0,.01,0,.02.01.04.03.09.05.13.08.03.02.01,0,.04.02.13.08.27.16.4.24.01,0,.04.02.05.03.04.03.09.05.13.08h.02c.14.1.28.18.43.26l.03.02c.14.08.29.17.43.25h.02s.09.07.14.09h.01c.15.09.29.18.44.27h.02c.14.09.29.18.43.26.01,0,.02.01.03.02.05.03.09.05.14.08h.02c.09.06.18.12.28.17h.02s.09.06.13.09c.01,0,.03.02.05.03.09.05.18.11.27.16h0s.08.05.12.07c.03.01.03.02.06.03.04.02.08.05.12.07.01,0,.04.02.05.03.07.04.13.08.2.12.04.02.05.03.09.05.03.02.06.04.09.05.04.02.06.04.1.06.04.02.07.04.11.06.04.02.11.06.15.08.03.02.05.03.08.05.03.01.09.05.11.07.03.02.05.03.08.05.05.03.12.07.17.1.02,0,.03.02.05.03.05.03.1.06.15.09.02.01.04.02.05.03.06.04.13.07.19.11,0,0,0,0,0,0,.06.04.14.08.2.12.01,0,.03.01.04.02.06.04.12.07.19.11,0,0,0,0,0,0,.08.04.14.08.21.12h0c.06.04.15.09.21.12,0,0,0,0,0,0,1.81,1.04,3.62,2.05,5.45,3.07l-14.71,26.55c-4.98-2.74-9.91-5.55-14.8-8.44l15.65-26.1s.02,0,.02.01Z"/><path class="cls-2" d="m240.27,896.29h0s.09.07.14.11h0c.14.1.28.2.43.3h0c.14.1.28.2.42.3h.02c.19.15.38.28.57.41h0c.14.1.28.2.42.3h.01c3.03,2.14,6.09,4.23,9.17,6.29l-17,25.45c-4.75-3.12-9.45-6.31-14.1-9.57l17.95-24.99c.65.47,1.3.93,1.95,1.39Z"/><path class="cls-2" d="m310.54,937.57s0,0,0,0c.15.07.3.14.45.21,0,0,0,0,0,0,.07.03.15.07.22.1,0,0,0,0,0,0,.08.04.14.06.22.1.01,0,.02.01.03.02.07.03.1.05.17.08.02,0,.04.02.06.03.05.03.12.06.17.08.02,0,.04.02.06.03.05.03.1.05.15.07.03.01.06.03.09.04.03.01.08.04.1.05.03.02.06.03.1.05.04.02.11.05.15.07.05.02.09.04.14.07.03.01.04.02.07.03.04.02.08.04.13.06.01,0,.03.01.04.02.15.07.3.14.45.21h.01c2.08.98,4.17,1.94,6.26,2.88l-12.42,27.6c-5.18-2.33-10.32-4.74-15.42-7.24l13.36-27.18c1.79.88,3.6,1.75,5.4,2.61Z"/><path class="cls-2" d="m190.48,855.54l-21.73,23.14c-4.23-3.82-8.39-7.7-12.49-11.65l22.75-22.64c3.76,3.78,7.59,7.5,11.48,11.15Z"/><path class="cls-2" d="m110.99,757.91s.01.02.02.03c.04.06.08.13.12.2,0,0,0,0,0,.01.04.06.07.12.11.18.01.02.02.04.03.05.02.04.06.1.09.14.01.02.02.04.04.06.03.05.08.12.11.17.02.03.03.05.05.08.02.04.04.07.07.11.02.03.04.06.06.09.02.03.05.08.06.1.03.05.06.1.1.16.02.03.03.05.05.08.02.04.04.07.07.11.02.03.03.04.04.07.08.13.16.26.24.39.02.03.01.02.03.05.09.14.17.28.26.42h0c1.12,1.81,2.24,3.6,3.38,5.37l-29.47,18.86c-3.24-4.73-6.41-9.52-9.49-14.35l30.56-18.12c1.15,1.93,2.3,3.85,3.47,5.76Z"/><path class="cls-2" d="m131.84,789.09s0,0,0,0c2.11,2.89,4.25,5.77,6.42,8.62l-26.81,20.46c-3.6-4.45-7.12-8.96-10.57-13.51l27.89-19.83c1.02,1.43,2.03,2.85,3.07,4.26Z"/><path class="cls-2" d="m156.5,820.14h0s.07.09.11.13c0,.01,0,.01.02.02.06.07.12.14.18.21,0,.01.03.04.04.05.03.03.06.07.08.1.02.02.04.05.06.07.03.03.05.06.08.09.04.04.08.1.12.14.02.02.04.05.06.07.03.03.05.06.08.1.02.02.04.04.06.07.04.04.08.09.12.14.01.01.02.03.04.04.04.04.09.1.13.15.01.02.03.03.04.05.05.06.08.09.12.14,0,0,.02.02.02.03.05.06.1.12.15.18,0,0,0,.01.01.02.06.07.09.11.15.17,0,0,0,0,0,0,1.65,1.88,3.3,3.75,4.98,5.6l-24.23,21.87c-3.93-4.14-7.78-8.35-11.57-12.61l25.28-21.32c1.27,1.5,2.55,3,3.84,4.49Z"/><path class="cls-2" d="m89.92,719.61s0,0,0,0c2.06,4.19,4.18,8.35,6.35,12.47l-32.14,16.99c-2.86-5-5.63-10.04-8.32-15.12l33.22-16.14c.29.6.58,1.2.88,1.8Z"/><path class="cls-2" d="m950.17,339.48c-1.96-4.97-4.01-9.89-6.14-14.77l19.03-8.29c2.41,5.03,4.72,10.1,6.95,15.21l-19.84,7.85Z"/><path class="cls-2" d="m972.69,414.07c-.19-.89-.39-1.8-.58-2.69,0,0,0,0,0-.01-.02-.07-.03-.12-.04-.2,0-.02-.01-.05-.02-.07,0-.04-.02-.09-.03-.14-.02-.08-.03-.15-.05-.23,0-.01,0-.02,0-.04-.01-.05-.02-.1-.03-.15,0-.01,0-.03,0-.04-.63-2.84-1.28-5.68-1.96-8.5v-.02c-.02-.05-.03-.11-.04-.16,0-.01,0-.02,0-.03-.02-.07-.04-.15-.05-.22-.01-.04-.02-.09-.03-.13,0-.03-.01-.05-.02-.08-.02-.07-.03-.11-.05-.19,0,0,0-.01,0-.02-.21-.89-.43-1.77-.65-2.66l22.58-5.62c1.48,5.39,2.87,10.82,4.16,16.28l-23.14,4.93Z"/><path class="cls-2" d="m979.21,452.51c-.15-1.17-.3-2.32-.46-3.48,0,0,0,0,0,0-.01-.08-.02-.15-.03-.23,0-.01,0-.02,0-.03-.01-.08-.02-.15-.03-.23,0,0,0-.01,0-.02-.01-.08-.02-.13-.03-.21,0-.02,0-.05-.01-.07,0-.06-.01-.08-.02-.15,0-.03,0-.06-.01-.09,0-.05-.01-.1-.02-.15,0-.06-.02-.11-.02-.17,0-.03,0-.06-.01-.09,0-.04-.01-.09-.02-.13,0-.03,0-.04-.01-.08-.02-.16-.04-.32-.07-.48,0-.02,0-.02,0-.03,0-.05-.02-.11-.02-.16v-.03c-.47-3.35-.98-6.68-1.52-10.01l23.83-3.86c.99,5.51,1.89,11.05,2.68,16.62l-24.22,3.08Z"/><path class="cls-2" d="m982.53,491.36c-.24-5.35-.56-10.67-.98-15.97l24.65-1.92c.49,5.57.89,11.17,1.18,16.79l-24.85,1.1Z"/><path class="cls-2" d="m962.99,376.31c-1.54-5.11-3.18-10.2-4.89-15.24l20.95-7.12c1.96,5.23,3.82,10.5,5.59,15.82l-21.65,6.54Z"/><path class="cls-2" d="m934.33,303.86c-.39-.79-.79-1.58-1.18-2.37h0c-.03-.06-.05-.11-.08-.16h0c-.05-.11-.1-.21-.15-.31v-.02s-.05-.08-.07-.12c-.01-.03-.02-.05-.04-.07-.02-.04-.04-.08-.06-.11-.03-.05-.06-.11-.08-.16-.02-.03-.03-.06-.05-.09-.02-.04-.03-.06-.05-.1-.02-.03-.03-.06-.05-.09-.03-.05-.04-.09-.07-.14l-.02-.05c-.03-.07-.06-.13-.1-.19,0-.02-.02-.03-.03-.05-.03-.07-.06-.11-.09-.18,0,0,0-.02-.01-.02-.04-.08-.07-.13-.11-.21,0,0,0,0,0,0-.03-.07-.07-.15-.11-.21,0,0,0,0,0,0-1.63-3.2-3.29-6.36-4.99-9.52l16.91-9.11c2.83,4.79,5.57,9.62,8.23,14.51l-17.8,8.82Z"/><path class="cls-2" d="m869.94,206.53c-2.22-2.59-4.48-5.17-6.75-7.71,0,0,0,0,0,0-.11-.12-.22-.24-.32-.36,0,0-.01-.01-.02-.02-.11-.12-.21-.23-.32-.35,0,0-.01-.01-.02-.02-.05-.05-.09-.1-.14-.15,0-.01-.02-.02-.03-.03-.05-.05-.11-.12-.15-.17,0,0,0,0-.01-.01-.04-.04-.1-.11-.14-.15-.01-.02-.03-.03-.04-.05-.05-.05-.1-.11-.15-.16,0,0,0,0,0,0-.05-.05-.1-.12-.15-.17l-.04-.04c-.05-.05-.08-.09-.13-.14,0,0-.02-.02-.03-.03-.05-.05-.1-.11-.15-.17,0-.01-.02-.02-.03-.03-.05-.05-.08-.09-.13-.14-.01-.01-.02-.02-.03-.03-.1-.11-.21-.23-.31-.34,0,0-.02-.02-.02-.03-.05-.05-.1-.11-.15-.16,0,0,0,0-.01-.01-.05-.05-.11-.12-.16-.17,0,0-.01-.02-.02-.02-.04-.04-.11-.12-.15-.16,0,0,0-.01-.01-.02-.11-.12-.22-.24-.33-.36,0,0,0,0-.01-.01-.23-.25-.44-.48-.67-.73l10.35-9.5c3.89,3.89,7.72,7.84,11.48,11.86l-11.22,9.61Z"/><path class="cls-2" d="m894.06,237.16c-1.17-1.62-2.35-3.23-3.55-4.84,0,0,0,0,0,0-.1-.13-.19-.26-.29-.39,0,0,0-.01-.01-.02-.1-.13-.19-.25-.28-.38,0-.01-.02-.02-.03-.04-.04-.05-.08-.11-.11-.15,0-.01-.02-.02-.03-.04-.04-.06-.09-.12-.13-.18-.01-.01-.02-.03-.03-.04-.03-.04-.08-.1-.1-.14-.02-.02-.03-.04-.05-.06-.03-.04-.06-.08-.09-.11l-.09-.12s-.05-.07-.07-.09c-.02-.03-.05-.06-.07-.09-.02-.02-.04-.05-.05-.07-.09-.12-.18-.24-.28-.37l-.02-.03c-1.42-1.89-2.86-3.77-4.31-5.64l12.49-9.69c3.57,4.21,7.07,8.49,10.49,12.82l-13.39,9.68Z"/><path class="cls-2" d="m915.58,269.67c-1.14-1.89-2.3-3.78-3.47-5.65,0-.01-.02-.03-.02-.04-.03-.04-.05-.08-.08-.12,0-.01-.03-.05-.04-.07-.03-.05-.07-.11-.1-.16-.02-.03-.05-.08-.06-.1-.02-.03-.04-.06-.06-.09-.02-.04-.04-.07-.07-.11-.02-.03-.03-.05-.05-.08-.03-.05-.08-.13-.11-.18-.01-.02-.02-.03-.03-.05-.03-.05-.06-.1-.09-.15-.01-.02-.02-.03-.03-.05-.09-.14-.17-.27-.25-.4,0,0,0,0,0,0-1.33-2.11-2.68-4.22-4.04-6.31l14.7-9.57c3.22,4.51,6.35,9.08,9.41,13.7l-15.61,9.43Z"/><path class="cls-2" d="m843.37,177.99s-.01-.01-.02-.02c-.1-.1-.22-.22-.33-.32,0,0,0,0-.01-.01-1.72-1.69-3.45-3.38-5.19-5.05h0c-.12-.11-.24-.23-.35-.34,0,0-.01-.01-.02-.02-.05-.05-.1-.09-.15-.14,0,0-.02-.02-.03-.02-.06-.06-.1-.1-.17-.16,0,0-.01-.01-.02-.02-.05-.05-.08-.08-.14-.13-.02-.02-.03-.03-.05-.05-.04-.04-.1-.09-.14-.13-.02-.02-.04-.03-.05-.05-.04-.04-.08-.07-.12-.11-.02-.02-.05-.04-.07-.06-.03-.03-.06-.06-.09-.09-.04-.04-.08-.08-.12-.11-.03-.03-.05-.05-.08-.08-.03-.03-.07-.06-.1-.09-.02-.02-.03-.03-.05-.05-.12-.11-.23-.22-.35-.33h-.01c-.04-.05-.08-.09-.12-.13h0c-1.25-1.18-2.51-2.36-3.77-3.53l8.37-9.06c4.18,3.55,8.3,7.17,12.36,10.85l-9.16,9.27Z"/><path class="cls-2" d="m53.76,617.52s.02.09.03.14c0,.03.01.05.02.08,0,.04.02.08.03.13.01.04.02.1.03.15,0,.04.02.08.03.12.01.04.02.09.03.14,0,.03.01.05.02.08.01.04.03.12.04.17,0,.02,0,.03.01.05.02.07.04.16.05.23,0,0,0,0,0,0,.02.07.04.16.05.23,0,0,0,0,0,.01.3,1.3.6,2.58.92,3.88l-38.89,9.35c-1.35-5.6-2.62-11.31-3.77-16.95l39.19-8.02c.7,3.41,1.43,6.81,2.2,10.19v.03Z"/><path class="cls-2" d="m1007.68,531.29l-25.02-.93c.02-.62.04-1.23.07-1.85,0-.03,0-.07,0-.1,0-.03,0-.06,0-.1,0-.06,0-.09,0-.15,0-.02,0-.04,0-.06.15-4.56.23-9.14.25-13.74l25,.1c0,5.63-.11,11.24-.31,16.84Z"/><path class="cls-2" d="m2.34,531.4l39.97-1.46c.09,2.42.19,4.83.32,7.24,0,0,0,.02,0,.02,0,.16.02.32.03.48,0,.01,0,.02,0,.03,0,.08,0,.12.01.2,0,.02,0,.04,0,.05,0,.06,0,.15.01.21,0,0,0,0,0,.01,0,.08,0,.15.01.23,0,.02,0,.03,0,.05,0,.06,0,.12,0,.18,0,.02,0,.04,0,.06,0,.06,0,.13.01.19,0,.01,0,.03,0,.04,0,.06,0,.16.01.22,0,.02,0,.04,0,.06,0,.05,0,.12,0,.16,0,.03,0,.05,0,.08,0,.06,0,.12.01.18,0,.01,0,.03,0,.04,0,.06,0,.16.01.22,0,.02,0,.04,0,.07,0,.05,0,.12,0,.16,0,.03,0,.05,0,.08,0,.06,0,.11.01.17,0,.02,0,.03,0,.05,0,.06,0,.16.01.22v.06s.01.12.01.17c0,.02,0,.05,0,.07,0,.06,0,.12.01.18,0,.01,0,.03,0,.04,0,.06,0,.16.01.23,0,.02,0,.03,0,.05,0,.05,0,.13.01.18,0,.02,0,.04,0,.06,0,.06,0,.12.01.19,0,.01,0,.03,0,.04,0,.06.01.17.01.23,0,.01,0,.02,0,.03,0,.06,0,.14.01.2,0,.01,0,.03,0,.04.01.17.02.3.03.47,0,0,0,0,0,0,0,.08,0,.15.01.23,0,0,0,.02,0,.03.02.25.03.47.05.72,0,0,0,.01,0,.02.04.66.09,1.32.13,1.98l-39.9,2.8c-.4-5.73-.71-11.56-.92-17.32Z"/><path class="cls-2" d="m64.84,657.71s0,.03.01.04c.01.04.02.07.04.11.01.04.03.08.04.12,0,.03.02.05.03.08.02.07.04.14.07.21,0,0,0,0,0,0,.03.09.04.13.07.22,0,0,0,.01,0,.02.21.63.41,1.26.62,1.89l-37.16,12.3c-1.99-5.43-3.88-10.9-5.67-16.4l38.07-11.16c1.24,4.22,2.53,8.41,3.88,12.57Z"/><path class="cls-2" d="m45.61,571.04s0,.01,0,.02c.02.17.04.31.06.48,0,0,0,.02,0,.03,0,.08.02.12.02.2,0,.02,0,.04,0,.05,0,.06.02.15.03.21,0,0,0,.01,0,.02,0,.08.02.15.03.22,0,.02,0,.04,0,.07,0,.06.01.1.02.16,0,.03,0,.05,0,.08,0,.06.01.11.02.17,0,.03,0,.06.01.09,0,.06.01.11.02.17,0,.03,0,.06.01.09,0,.03.01.11.02.14,0,.03,0,.06.01.09,0,.05.02.12.02.17,0,.04,0,.07.01.11,0,.05.01.1.02.14,0,.03,0,.07.01.1,0,.05.01.08.02.12,0,.03,0,.06.01.1,0,.05.02.12.02.17,0,.04.01.08.02.12,0,.05,0,.07.02.12,0,.04,0,.07.01.11,0,.03.01.08.01.11,0,.04,0,.08.01.11,0,.06.02.11.02.17,0,.04.01.08.02.13,0,.05,0,.06.01.11,0,.04,0,.07.01.11,0,.05,0,.07.02.11v.11c.02.06.03.13.04.19,0,.04.01.08.02.12,0,.03,0,.06.01.09,0,.04.01.08.02.12,0,.03,0,.07.01.1.01.08.02.15.03.23,0,.03,0,.05.01.08,0,.04.01.08.02.13,0,.03,0,.06.01.09,0,.04.01.08.02.13,0,.03,0,.06.01.1,0,.07.02.14.03.21,0,.03,0,.06.01.09,0,.04.01.08.02.13,0,.03,0,.06.01.09,0,.04.01.08.02.12,0,.03,0,.07.01.1.01.07.02.15.03.22,0,.03,0,.06.01.09,0,.04.01.08.02.13,0,.03,0,.05.01.08,0,.04.01.09.02.13,0,.03,0,.05.01.08.01.08.02.17.03.25,0,.02,0,.04,0,.06,0,.05.01.1.02.15,0,.03,0,.03,0,.06,0,.05.01.1.02.15h0c.02.12.03.24.05.35v.03c.01.05.02.11.03.16v.03c.25,1.69.5,3.38.76,5.07l-39.53,6.09c-.88-5.69-1.67-11.48-2.35-17.2l39.72-4.74c.09.74.18,1.49.27,2.23Z"/><path class="cls-2" d="m624.72,969.53l7.25,29.64c-5.49,1.4-11.02,2.7-16.59,3.9l-6.26-30.01c5.23-1.09,10.44-2.27,15.6-3.54Z"/><path class="cls-2" d="m658.37,959.95s.01,0,.01,0c.14-.05.31-.1.45-.15.01,0,.03,0,.04-.01.07-.02.12-.04.19-.06,0,0,.02,0,.03,0,.07-.02.14-.05.22-.07.02,0,.03-.01.05-.02.04-.01.11-.04.16-.05.02,0,.05-.02.07-.02.04-.01.1-.03.15-.05.04-.01.08-.03.12-.04.06-.02.08-.03.14-.05.03-.01.07-.02.1-.03.03,0,.06-.02.09-.03.04-.01.08-.03.12-.04.01,0,.01,0,.03,0,.09-.03.18-.06.27-.09.01,0,.05-.02.07-.02.05-.02.09-.03.14-.04.01,0,.04-.01.05-.02.15-.05.31-.1.46-.15h.03c.22-.08.45-.16.67-.23h0s.09-.03.14-.05l9.56,28.51c-5.35,1.87-10.74,3.65-16.18,5.33l-8.63-29.02c3.83-1.14,7.66-2.33,11.45-3.57Z"/><path class="cls-2" d="m586.5,977.21h0s4.81,30.44,4.81,30.44c-5.59.92-11.22,1.73-16.88,2.45l-3.78-30.66c5.31-.65,10.6-1.4,15.85-2.23Z"/><path class="cls-2" d="m543.77,981.98s0,0,.01,0c.16-.01.31-.02.46-.03.03,0,.06,0,.09,0,.03,0,.09,0,.12,0,.04,0,.08,0,.12,0,.02,0,.03,0,.04,0,1.05-.07,2.09-.14,3.14-.22l2.29,30.89c-5.64.43-11.31.77-17.01,1l-1.25-30.98c4.02-.16,7.99-.37,11.98-.63Z"/><path class="cls-2" d="m516.02,42.01s-.01,0-.02,0c-.25,0-.47,0-.72,0-.01,0-.03,0-.04,0-.08,0-.13,0-.21,0-.01,0-.02,0-.03,0-.08,0-.16,0-.24,0,0,0-.02,0-.03,0-.06,0-.14,0-.2,0-.02,0-.04,0-.06,0-.06,0-.12,0-.18,0-.02,0-.03,0-.05,0-.08,0-.15,0-.23,0,0,0-.01,0-.02,0-.06,0-.14,0-.2,0-.02,0-.05,0-.07,0-.06,0-.1,0-.16,0-.02,0-.05,0-.07,0-.08,0-.14,0-.22,0,0,0-.02,0-.03,0-.06,0-.13,0-.2,0-.03,0-.05,0-.08,0-.06,0-.09,0-.16,0h-.07c-.08,0-.15,0-.23,0v-5.93c5.42.09,10.82.25,16.2.49l-.19,5.7c-4.15-.14-8.3-.22-12.48-.25Z"/><path class="cls-2" d="m814.54,151.74c-2.42-2.03-4.87-4.04-7.33-6.02,0,0-.01-.01-.02-.01-.06-.05-.13-.1-.18-.15,0,0,0,0,0,0-.07-.06-.11-.09-.18-.15-.01,0-.02-.02-.03-.03-.05-.04-.1-.08-.14-.12-.02-.01-.03-.02-.04-.04-.06-.05-.11-.09-.17-.14-.01-.01-.03-.02-.04-.03-.05-.04-.09-.07-.14-.11-.02-.02-.04-.03-.06-.05-.03-.03-.08-.07-.12-.09-.03-.02-.06-.05-.09-.07-.05-.04-.08-.06-.12-.1-.03-.02-.05-.04-.08-.06-.02-.02-.07-.06-.09-.07-.03-.02-.06-.04-.08-.07-.05-.04-.1-.08-.14-.11-.03-.03-.07-.05-.1-.08-.02-.02-.04-.03-.06-.05-.03-.03-.07-.05-.1-.08-.02-.02-.05-.04-.07-.06-.06-.04-.11-.09-.17-.13-.01,0-.05-.04-.06-.05-.04-.03-.07-.06-.11-.09-.01,0-.04-.03-.05-.04-.12-.1-.24-.19-.36-.29-.02-.02-.02-.02-.05-.04-.04-.03-.07-.06-.11-.09-.01,0-.03-.03-.04-.04-.07-.05-.14-.11-.21-.16-.01,0-.03-.02-.04-.03-.04-.03-.08-.06-.12-.09-.01,0-.03-.02-.04-.03l-.22-.18s-.02-.02-.03-.02c-.04-.03-.07-.06-.11-.09-.02-.02-.03-.03-.06-.04-.04-.03-.07-.06-.11-.08-.01,0-.03-.03-.04-.03-.06-.05-.12-.1-.19-.15-.02-.02-.06-.04-.08-.06-.03-.03-.07-.05-.1-.08-.02-.02-.05-.04-.07-.05-.05-.04-.1-.08-.15-.12-.03-.03-.05-.04-.09-.07-.03-.02-.06-.05-.09-.07-.03-.03-.06-.05-.09-.07-.03-.02-.05-.04-.08-.06-.05-.04-.1-.08-.15-.12,0,0-.02-.01-.03-.02l6.6-8.44c4.44,3.2,8.81,6.46,13.13,9.8l-7.3,8.71Z"/><rect class="cls-1" x="0" y="0" width="1024" height="1024" transform="translate(1024 1024) rotate(-180)"/></svg>